# xmcd CD database file
#
# Track frame offsets:
#	182
#	19150
#	39147
#	60415
#	74997
#	94247
#	115605
#	127955
#	148600
#	171090
#	191432
#	209080
#	241080
#	258265
#	276897
#
# Disc length: 4014 seconds
#
# Revision: 0
# Processed by: cddbd v1.5PL3 Copyright (c) Steve Scherf et al.
# Submitted via: CDex 1.50
#
DISCID=d60fac0f
DTITLE=Woody Herman and his Orchestra - Live at the Peacock Lane
DYEAR=1958
DGENRE=Jazz
TTITLE0=Autobahn Blues (Ralph Burns)
TTITLE1=Park East (Gene Roland)
TTITLE2=Why You ( John Bunch)
TTITLE3=Saxy (Gene Roland)
TTITLE4=Don't Get Around Much Anymore (D.Ellington-B.Russel)
TTITLE5=Natchel Blues (Gene Roland)
TTITLE6=Lullaby of Birdland (G.Shearing-G.Weiss)
TTITLE7=Gloomy Sunday (L.Javor-R.Seress-S.Lewis)
TTITLE8=Ready, Get Set, Jump (Gene Roland)
TTITLE9=Blue Satin (Gene Roland)
TTITLE10=Skylark (J.Mercer-H.Carmichael)
TTITLE11=Captain Ahab (Manny Albam)
TTITLE12=Bijou (Ralph Burns)
TTITLE13=Barfly Blues (Gene Roland)
TTITLE14=Opus de Funck (Horace Silver)
EXTD=YEAR: 1958
EXTT0=
EXTT1=
EXTT2=
EXTT3=
EXTT4=
EXTT5=
EXTT6=
EXTT7=
EXTT8=
EXTT9=
EXTT10=
EXTT11=
EXTT12=
EXTT13=
EXTT14=
PLAYORDER=
